<svg xmlns:xlink="http://www.w3.org/1999/xlink" width="86.082ex" height="18.509ex" style="font-size: 15px; vertical-align: -8.671ex;" viewBox="0 -4235.8 37063 7969.2" role="img" focusable="false" xmlns="http://www.w3.org/2000/svg">
<defs>
<path stroke-width="1" id="E1-MJMAINB-42" d="M720 510Q720 476 704 448T665 404T619 377T580 362L564 359L583 356Q602 353 632 342T690 312Q712 292 725 276Q752 235 752 189V183Q752 160 741 125Q698 18 547 2Q543 1 288 0H39V62H147V624H39V686H264H409Q502 686 542 681T624 655Q720 607 720 510ZM563 513Q563 553 548 578T518 611T486 622Q479 624 385 624H293V382H375Q458 383 467 385Q563 405 563 513ZM590 192Q590 307 505 329Q504 330 503 330L398 331H293V62H391H400H444Q496 62 528 75T580 131Q590 155 590 192Z"></path>
<path stroke-width="1" id="E1-MJMAINB-61" d="M64 349Q64 399 107 426T255 453Q346 453 402 423T473 341Q478 327 478 310T479 196V77Q493 63 529 62Q549 62 553 57T558 31Q558 9 552 5T514 0H497H481Q375 0 367 56L356 46Q300 -6 210 -6Q130 -6 81 30T32 121Q32 188 111 226T332 272H350V292Q350 313 348 327T337 361T306 391T248 402T194 399H189Q204 376 204 354Q204 327 187 306T134 284Q97 284 81 305T64 349ZM164 121Q164 89 186 67T238 45Q274 45 307 63T346 108L350 117V226H347Q248 218 206 189T164 121Z"></path>
<path stroke-width="1" id="E1-MJMAINB-74" d="M272 49Q320 49 320 136V145V177H382V143Q382 106 380 99Q374 62 349 36T285 -2L272 -5H247Q173 -5 134 27Q109 46 102 74T94 160Q94 171 94 199T95 245V382H21V433H25Q58 433 90 456Q121 479 140 523T162 621V635H224V444H363V382H224V239V207V149Q224 98 228 81T249 55Q261 49 272 49Z"></path>
<path stroke-width="1" id="E1-MJMAINB-63" d="M447 131H458Q478 131 478 117Q478 112 471 95T439 51T377 9Q330 -6 286 -6Q196 -6 135 35Q39 96 39 222Q39 324 101 384Q169 453 286 453Q359 453 411 431T464 353Q464 319 445 302T395 284Q360 284 343 305T325 353Q325 380 338 396H333Q317 398 295 398H292Q280 398 271 397T245 390T218 373T197 338T183 283Q182 275 182 231Q182 199 184 180T193 132T220 85T270 57Q289 50 317 50H326Q385 50 414 115Q419 127 423 129T447 131Z"></path>
<path stroke-width="1" id="E1-MJMAINB-68" d="M40 686L131 690Q222 694 223 694H229V533L230 372L238 381Q248 394 264 407T317 435T398 450Q428 450 448 447T491 434T529 402T551 346Q553 335 554 198V62H623V0H614Q596 3 489 3Q374 3 365 0H356V62H425V194V275Q425 348 416 373T371 399Q326 399 288 370T238 290Q236 281 235 171V62H304V0H295Q277 3 171 3Q64 3 46 0H37V62H106V332Q106 387 106 453T107 534Q107 593 105 605T91 620Q77 624 50 624H37V686H40Z"></path>
<path stroke-width="1" id="E1-MJMAINB-48" d="M400 0Q376 3 226 3Q75 3 51 0H39V62H147V624H39V686H51Q75 683 226 683Q376 683 400 686H412V624H304V388H595V624H487V686H499Q523 683 673 683Q824 683 848 686H860V624H752V62H860V0H848Q824 3 674 3Q523 3 499 0H487V62H595V326H304V62H412V0H400Z"></path>
<path stroke-width="1" id="E1-MJMAINB-65" d="M32 225Q32 332 102 392T272 452H283Q382 452 436 401Q494 343 494 243Q494 226 486 222T440 217Q431 217 394 217T327 218H175V209Q175 177 179 154T196 107T236 69T306 50Q312 49 323 49Q376 49 410 85Q421 99 427 111T434 127T442 133T463 135H468Q494 135 494 117Q494 110 489 97T468 66T431 32T373 5T292 -6Q181 -6 107 55T32 225ZM383 276Q377 346 348 374T280 402Q253 402 230 390T195 357Q179 331 176 279V266H383V276Z"></path>
<path stroke-width="1" id="E1-MJMAINB-69" d="M72 610Q72 649 98 672T159 695Q193 693 217 670T241 610Q241 572 217 549T157 525Q120 525 96 548T72 610ZM46 442L136 446L226 450H232V62H294V0H286Q271 3 171 3Q67 3 49 0H40V62H109V209Q109 358 108 362Q103 380 55 380H43V442H46Z"></path>
<path stroke-width="1" id="E1-MJMAINB-67" d="M50 300Q50 368 105 409T255 450Q328 450 376 426L388 420Q435 455 489 455Q517 455 533 441T554 414T558 389Q558 367 544 353T508 339Q484 339 471 354T458 387Q458 397 462 400Q464 401 461 400Q459 400 454 399Q429 392 427 390Q454 353 459 328Q461 315 461 300Q461 240 419 202Q364 149 248 149Q185 149 136 172Q129 158 129 148Q129 105 170 93Q176 91 263 91Q273 91 298 91T334 91T366 89T400 85T432 77T466 64Q544 22 544 -69Q544 -114 506 -145Q438 -201 287 -201Q149 -201 90 -161T30 -70Q30 -58 33 -47T42 -27T54 -13T69 -1T82 6T94 12T101 15Q66 57 66 106Q66 151 90 187L97 197L89 204Q50 243 50 300ZM485 403H492Q491 404 488 404L485 403V403ZM255 200Q279 200 295 206T319 219T331 242T335 268T336 300Q336 337 333 352T317 380Q298 399 255 399Q228 399 211 392T187 371T178 345T176 312V300V289Q176 235 194 219Q215 200 255 200ZM287 -150Q357 -150 400 -128T443 -71Q443 -65 442 -61T436 -50T420 -37T389 -27T339 -21L308 -20Q276 -20 253 -20Q190 -20 180 -20T156 -26Q130 -38 130 -69Q130 -105 173 -127T287 -150Z"></path>
<path stroke-width="1" id="E1-MJMAINB-57" d="M915 686L1052 683Q1142 683 1157 686H1164V624H1073L957 320Q930 249 900 170T855 52T839 10Q834 0 826 -5Q821 -7 799 -7H792Q777 -7 772 -5T759 10Q759 11 748 39T716 122T676 228L594 442L512 228Q486 159 455 78Q433 19 428 9T416 -5Q411 -7 389 -7H379Q356 -7 349 10Q349 12 334 51T288 170T231 320L116 624H24V686H35Q44 683 183 683Q331 683 355 686H368V624H323Q278 624 278 623L437 207L499 369L561 531L526 624H434V686H445Q454 683 593 683Q741 683 765 686H778V624H733Q688 624 688 623L847 207Q848 207 927 415T1006 624H905V686H915Z"></path>
<path stroke-width="1" id="E1-MJMAINB-64" d="M351 686L442 690Q533 694 534 694H540V389Q540 327 540 253T539 163Q539 97 541 83T555 66Q569 62 596 62H609V31Q609 0 608 0Q588 0 510 -3T412 -6Q411 -6 411 16V38L401 31Q337 -6 265 -6Q159 -6 99 58T38 224Q38 265 51 303T92 375T165 429T272 449Q359 449 417 412V507V555Q417 597 415 607T402 620Q388 624 361 624H348V686H351ZM411 350Q362 399 291 399Q278 399 256 392T218 371Q195 351 189 320T182 238V221Q182 179 183 159T191 115T212 74Q241 46 288 46Q358 46 404 100L411 109V350Z"></path>
<path stroke-width="1" id="E1-MJMAINB-49" d="M397 0Q370 3 218 3Q65 3 38 0H25V62H139V624H25V686H38Q65 683 218 683Q370 683 397 686H410V624H296V62H410V0H397Z"></path>
<path stroke-width="1" id="E1-MJMAINB-6E" d="M40 442Q217 450 218 450H224V407L225 365Q233 378 245 391T289 422T362 448Q374 450 398 450Q428 450 448 447T491 434T529 402T551 346Q553 335 554 198V62H623V0H614Q596 3 489 3Q374 3 365 0H356V62H425V194V275Q425 348 416 373T371 399Q326 399 288 370T238 290Q236 281 235 171V62H304V0H295Q277 3 171 3Q64 3 46 0H37V62H106V210V303Q106 353 104 363T91 376Q77 380 50 380H37V442H40Z"></path>
<path stroke-width="1" id="E1-MJMAINB-44" d="M39 624V686H270H310H408Q500 686 545 680T638 649Q768 584 805 438Q817 388 817 338Q817 171 702 75Q628 17 515 2Q504 1 270 0H39V62H147V624H39ZM655 337Q655 370 655 390T650 442T639 494T616 540T580 580T526 607T451 623Q443 624 368 624H298V62H377H387H407Q445 62 472 65T540 83T606 129Q629 156 640 195T653 262T655 337Z"></path>
<path stroke-width="1" id="E1-MJMAINB-70" d="M32 442L123 446Q214 450 215 450H221V409Q222 409 229 413T251 423T284 436T328 446T382 450Q480 450 540 388T600 223Q600 128 539 61T361 -6H354Q292 -6 236 28L227 34V-132H296V-194H287Q269 -191 163 -191Q56 -191 38 -194H29V-132H98V113V284Q98 330 97 348T93 370T83 376Q69 380 42 380H29V442H32ZM457 224Q457 303 427 349T350 395Q282 395 235 352L227 345V104L233 97Q274 45 337 45Q383 45 420 86T457 224Z"></path>
<path stroke-width="1" id="E1-MJMAINB-4F" d="M64 339Q64 431 96 502T182 614T295 675T420 696Q469 696 481 695Q620 680 709 589T798 339Q798 173 697 82T432 -10Q262 -10 163 85T64 339ZM625 454Q618 502 600 538T562 593T515 624T469 639T431 642Q331 642 276 563Q232 493 232 353Q232 315 234 285T244 216T267 148T308 94T372 56Q405 46 432 46Q517 46 567 106T627 267Q631 299 631 353Q631 418 625 454Z"></path>
<path stroke-width="1" id="E1-MJMAINB-75" d="M40 442L134 446Q228 450 229 450H235V273V165Q235 90 238 74T254 52Q268 46 304 46H319Q352 46 380 67T419 121L420 123Q424 135 425 199Q425 201 425 207Q425 233 425 249V316Q425 354 423 363T410 376Q396 380 369 380H356V442L554 450V267Q554 84 556 79Q561 62 610 62H623V31Q623 0 622 0Q603 0 527 -3T432 -6Q431 -6 431 25V56L420 45Q373 6 332 -1Q313 -6 281 -6Q208 -6 165 14T109 87L107 98L106 230Q106 358 104 366Q96 380 50 380H37V442H40Z"></path>
<path stroke-width="1" id="E1-MJMAIN-32" d="M109 429Q82 429 66 447T50 491Q50 562 103 614T235 666Q326 666 387 610T449 465Q449 422 429 383T381 315T301 241Q265 210 201 149L142 93L218 92Q375 92 385 97Q392 99 409 186V189H449V186Q448 183 436 95T421 3V0H50V19V31Q50 38 56 46T86 81Q115 113 136 137Q145 147 170 174T204 211T233 244T261 278T284 308T305 340T320 369T333 401T340 431T343 464Q343 527 309 573T212 619Q179 619 154 602T119 569T109 550Q109 549 114 549Q132 549 151 535T170 489Q170 464 154 447T109 429Z"></path>
<path stroke-width="1" id="E1-MJMAIN-35" d="M164 157Q164 133 148 117T109 101H102Q148 22 224 22Q294 22 326 82Q345 115 345 210Q345 313 318 349Q292 382 260 382H254Q176 382 136 314Q132 307 129 306T114 304Q97 304 95 310Q93 314 93 485V614Q93 664 98 664Q100 666 102 666Q103 666 123 658T178 642T253 634Q324 634 389 662Q397 666 402 666Q410 666 410 648V635Q328 538 205 538Q174 538 149 544L139 546V374Q158 388 169 396T205 412T256 420Q337 420 393 355T449 201Q449 109 385 44T229 -22Q148 -22 99 32T50 154Q50 178 61 192T84 210T107 214Q132 214 148 197T164 157Z"></path>
<path stroke-width="1" id="E1-MJMAIN-36" d="M42 313Q42 476 123 571T303 666Q372 666 402 630T432 550Q432 525 418 510T379 495Q356 495 341 509T326 548Q326 592 373 601Q351 623 311 626Q240 626 194 566Q147 500 147 364L148 360Q153 366 156 373Q197 433 263 433H267Q313 433 348 414Q372 400 396 374T435 317Q456 268 456 210V192Q456 169 451 149Q440 90 387 34T253 -22Q225 -22 199 -14T143 16T92 75T56 172T42 313ZM257 397Q227 397 205 380T171 335T154 278T148 216Q148 133 160 97T198 39Q222 21 251 21Q302 21 329 59Q342 77 347 104T352 209Q352 289 347 316T329 361Q302 397 257 397Z"></path>
<path stroke-width="1" id="E1-MJMAIN-D7" d="M630 29Q630 9 609 9Q604 9 587 25T493 118L389 222L284 117Q178 13 175 11Q171 9 168 9Q160 9 154 15T147 29Q147 36 161 51T255 146L359 250L255 354Q174 435 161 449T147 471Q147 480 153 485T168 490Q173 490 175 489Q178 487 284 383L389 278L493 382Q570 459 587 475T609 491Q630 491 630 471Q630 464 620 453T522 355L418 250L522 145Q606 61 618 48T630 29Z"></path>
<path stroke-width="1" id="E1-MJMAIN-37" d="M55 458Q56 460 72 567L88 674Q88 676 108 676H128V672Q128 662 143 655T195 646T364 644H485V605L417 512Q408 500 387 472T360 435T339 403T319 367T305 330T292 284T284 230T278 162T275 80Q275 66 275 52T274 28V19Q270 2 255 -10T221 -22Q210 -22 200 -19T179 0T168 40Q168 198 265 368Q285 400 349 489L395 552H302Q128 552 119 546Q113 543 108 522T98 479L95 458V455H55V458Z"></path>
<path stroke-width="1" id="E1-MJMAIN-33" d="M127 463Q100 463 85 480T69 524Q69 579 117 622T233 665Q268 665 277 664Q351 652 390 611T430 522Q430 470 396 421T302 350L299 348Q299 347 308 345T337 336T375 315Q457 262 457 175Q457 96 395 37T238 -22Q158 -22 100 21T42 130Q42 158 60 175T105 193Q133 193 151 175T169 130Q169 119 166 110T159 94T148 82T136 74T126 70T118 67L114 66Q165 21 238 21Q293 21 321 74Q338 107 338 175V195Q338 290 274 322Q259 328 213 329L171 330L168 332Q166 335 166 348Q166 366 174 366Q202 366 232 371Q266 376 294 413T322 525V533Q322 590 287 612Q265 626 240 626Q208 626 181 615T143 592T132 580H135Q138 579 143 578T153 573T165 566T175 555T183 540T186 520Q186 498 172 481T127 463Z"></path>
<path stroke-width="1" id="E1-MJMAINB-4B" d="M400 0Q376 3 226 3Q75 3 51 0H39V62H147V624H39V686H51Q75 683 226 683Q376 683 400 686H412V624H304V338L472 483L634 624H565V686H576Q597 683 728 683Q814 683 829 686H836V624H730L614 524Q507 432 497 422Q496 422 498 418T514 395T553 342T627 241L759 63L805 62H852V0H842Q830 3 701 3Q550 3 526 0H513V62H549Q584 62 584 63Q583 65 486 196T388 328L304 256V62H412V0H400Z"></path>
<path stroke-width="1" id="E1-MJMAINB-72" d="M405 293T374 293T324 312T305 361Q305 378 312 394Q315 397 315 399Q305 399 294 394T266 375T238 329T222 249Q221 241 221 149V62H308V0H298Q280 3 161 3Q47 3 38 0H29V62H98V210V303Q98 353 96 363T83 376Q69 380 42 380H29V442H32L118 446Q204 450 205 450H210V414L211 378Q247 449 315 449H321Q384 449 413 422T442 360Q442 332 424 313Z"></path>
<path stroke-width="1" id="E1-MJMAINB-6C" d="M43 686L134 690Q225 694 226 694H232V62H301V0H292Q274 3 170 3Q67 3 49 0H40V62H109V332Q109 387 109 453T110 534Q110 593 108 605T94 620Q80 624 53 624H40V686H43Z"></path>
<path stroke-width="1" id="E1-MJMAIN-31" d="M213 578L200 573Q186 568 160 563T102 556H83V602H102Q149 604 189 617T245 641T273 663Q275 666 285 666Q294 666 302 660V361L303 61Q310 54 315 52T339 48T401 46H427V0H416Q395 3 257 3Q121 3 100 0H88V46H114Q136 46 152 46T177 47T193 50T201 52T207 57T213 61V578Z"></path>
<path stroke-width="1" id="E1-MJMAIN-39" d="M352 287Q304 211 232 211Q154 211 104 270T44 396Q42 412 42 436V444Q42 537 111 606Q171 666 243 666Q245 666 249 666T257 665H261Q273 665 286 663T323 651T370 619T413 560Q456 472 456 334Q456 194 396 97Q361 41 312 10T208 -22Q147 -22 108 7T68 93T121 149Q143 149 158 135T173 96Q173 78 164 65T148 49T135 44L131 43Q131 41 138 37T164 27T206 22H212Q272 22 313 86Q352 142 352 280V287ZM244 248Q292 248 321 297T351 430Q351 508 343 542Q341 552 337 562T323 588T293 615T246 625Q208 625 181 598Q160 576 154 546T147 441Q147 358 152 329T172 282Q197 248 244 248Z"></path>
</defs>
<g stroke="currentColor" fill="currentColor" stroke-width="0" transform="matrix(1 0 0 -1 0 0)">
<g transform="translate(167,0)">
<g transform="translate(-11,0)">
<g transform="translate(437,1079)">
 <use xlink:href="#E1-MJMAINB-49" x="0" y="0"></use>
 <use xlink:href="#E1-MJMAINB-6E" x="436" y="0"></use>
 <use xlink:href="#E1-MJMAINB-70" x="1076" y="0"></use>
 <use xlink:href="#E1-MJMAINB-75" x="1715" y="0"></use>
 <use xlink:href="#E1-MJMAINB-74" x="2355" y="0"></use>
</g>
<g transform="translate(144,-1181)">
 <use xlink:href="#E1-MJMAINB-4B" x="0" y="0"></use>
 <use xlink:href="#E1-MJMAINB-65" x="901" y="0"></use>
 <use xlink:href="#E1-MJMAINB-72" x="1429" y="0"></use>
 <use xlink:href="#E1-MJMAINB-6E" x="1903" y="0"></use>
 <use xlink:href="#E1-MJMAINB-65" x="2543" y="0"></use>
 <use xlink:href="#E1-MJMAINB-6C" x="3070" y="0"></use>
</g>
<g transform="translate(0,-3441)">
 <use xlink:href="#E1-MJMAINB-4F" x="0" y="0"></use>
 <use xlink:href="#E1-MJMAINB-75" x="864" y="0"></use>
 <use xlink:href="#E1-MJMAINB-74" x="1504" y="0"></use>
 <use xlink:href="#E1-MJMAINB-70" x="1951" y="0"></use>
 <use xlink:href="#E1-MJMAINB-75" x="2591" y="0"></use>
 <use xlink:href="#E1-MJMAINB-74" x="3230" y="0"></use>
</g>
</g>
<g transform="translate(4667,0)">
<g transform="translate(1651,3341)">
 <use xlink:href="#E1-MJMAINB-42" x="0" y="0"></use>
 <use xlink:href="#E1-MJMAINB-61" x="818" y="0"></use>
 <use xlink:href="#E1-MJMAINB-74" x="1378" y="0"></use>
 <use xlink:href="#E1-MJMAINB-63" x="1825" y="0"></use>
 <use xlink:href="#E1-MJMAINB-68" x="2337" y="0"></use>
</g>
<g transform="translate(0,1079)">
<g transform="translate(2000,0)">
 <use xlink:href="#E1-MJMAIN-32"></use>
 <use xlink:href="#E1-MJMAIN-35" x="500" y="0"></use>
 <use xlink:href="#E1-MJMAIN-36" x="1001" y="0"></use>
</g>
 <use xlink:href="#E1-MJMAIN-D7" x="5501" y="0"></use>
</g>
<g transform="translate(0,-3441)">
<g transform="translate(2000,0)">
 <use xlink:href="#E1-MJMAIN-32"></use>
 <use xlink:href="#E1-MJMAIN-35" x="500" y="0"></use>
 <use xlink:href="#E1-MJMAIN-36" x="1001" y="0"></use>
</g>
 <use xlink:href="#E1-MJMAIN-D7" x="5501" y="0"></use>
</g>
</g>
<g transform="translate(11947,0)">
<g transform="translate(0,3341)">
 <use xlink:href="#E1-MJMAINB-48" x="0" y="0"></use>
 <use xlink:href="#E1-MJMAINB-65" x="900" y="0"></use>
 <use xlink:href="#E1-MJMAINB-69" x="1428" y="0"></use>
 <use xlink:href="#E1-MJMAINB-67" x="1747" y="0"></use>
 <use xlink:href="#E1-MJMAINB-68" x="2323" y="0"></use>
 <use xlink:href="#E1-MJMAINB-74" x="2962" y="0"></use>
</g>
<g transform="translate(954,1079)">
<g fill="blue" stroke="blue">
<g fill="blue" stroke="blue">
<g fill="blue" stroke="blue">
 <use xlink:href="#E1-MJMAIN-32"></use>
 <use xlink:href="#E1-MJMAIN-32" x="500" y="0"></use>
 <use xlink:href="#E1-MJMAIN-37" x="1001" y="0"></use>
</g>
</g>
</g>
</g>
<g transform="translate(1204,-1181)">
<g fill="blue" stroke="blue">
<g fill="blue" stroke="blue">
<g fill="blue" stroke="blue">
 <use xlink:href="#E1-MJMAIN-31"></use>
 <use xlink:href="#E1-MJMAIN-31" x="500" y="0"></use>
</g>
</g>
</g>
</g>
<g transform="translate(1204,-3441)">
<g fill="blue" stroke="blue">
<g fill="blue" stroke="blue">
<g fill="blue" stroke="blue">
 <use xlink:href="#E1-MJMAIN-35"></use>
 <use xlink:href="#E1-MJMAIN-35" x="500" y="0"></use>
</g>
</g>
</g>
</g>
</g>
<g transform="translate(16357,0)">
 <use xlink:href="#E1-MJMAIN-D7" x="0" y="1079"></use>
 <use xlink:href="#E1-MJMAIN-D7" x="0" y="-1181"></use>
 <use xlink:href="#E1-MJMAIN-D7" x="0" y="-3441"></use>
</g>
<g transform="translate(18136,0)">
<g transform="translate(0,3341)">
 <use xlink:href="#E1-MJMAINB-57" x="0" y="0"></use>
 <use xlink:href="#E1-MJMAINB-69" x="1189" y="0"></use>
 <use xlink:href="#E1-MJMAINB-64" x="1509" y="0"></use>
 <use xlink:href="#E1-MJMAINB-74" x="2148" y="0"></use>
 <use xlink:href="#E1-MJMAINB-68" x="2596" y="0"></use>
</g>
<g transform="translate(867,1079)">
<g fill="blue" stroke="blue">
<g fill="blue" stroke="blue">
<g fill="blue" stroke="blue">
 <use xlink:href="#E1-MJMAIN-32"></use>
 <use xlink:href="#E1-MJMAIN-32" x="500" y="0"></use>
 <use xlink:href="#E1-MJMAIN-37" x="1001" y="0"></use>
</g>
</g>
</g>
</g>
<g transform="translate(1117,-1181)">
<g fill="blue" stroke="blue">
<g fill="blue" stroke="blue">
<g fill="blue" stroke="blue">
 <use xlink:href="#E1-MJMAIN-31"></use>
 <use xlink:href="#E1-MJMAIN-31" x="500" y="0"></use>
</g>
</g>
</g>
</g>
<g transform="translate(1117,-3441)">
<g fill="blue" stroke="blue">
<g fill="blue" stroke="blue">
<g fill="blue" stroke="blue">
 <use xlink:href="#E1-MJMAIN-35"></use>
 <use xlink:href="#E1-MJMAIN-35" x="500" y="0"></use>
</g>
</g>
</g>
</g>
</g>
<g transform="translate(22371,0)">
 <use xlink:href="#E1-MJMAIN-D7" x="0" y="1079"></use>
 <use xlink:href="#E1-MJMAIN-D7" x="0" y="-1181"></use>
</g>
<g transform="translate(24150,0)">
<g transform="translate(0,3341)">
 <use xlink:href="#E1-MJMAINB-49" x="0" y="0"></use>
 <use xlink:href="#E1-MJMAINB-6E" x="436" y="0"></use>
 <use xlink:href="#E1-MJMAINB-44" x="1326" y="0"></use>
 <use xlink:href="#E1-MJMAINB-65" x="2208" y="0"></use>
 <use xlink:href="#E1-MJMAINB-70" x="2736" y="0"></use>
 <use xlink:href="#E1-MJMAINB-74" x="3375" y="0"></use>
 <use xlink:href="#E1-MJMAINB-68" x="3823" y="0"></use>
</g>
<g transform="translate(1981,1079)">
<g fill="red" stroke="red">
<g fill="red" stroke="red">
<g fill="red" stroke="red">
 <use xlink:href="#E1-MJMAIN-33"></use>
</g>
</g>
</g>
</g>
<g transform="translate(1981,-1181)">
<g fill="red" stroke="red">
<g fill="red" stroke="red">
<g fill="red" stroke="red">
 <use xlink:href="#E1-MJMAIN-33"></use>
</g>
</g>
</g>
</g>
</g>
<g transform="translate(29612,0)">
 <use xlink:href="#E1-MJMAIN-D7" x="0" y="-1181"></use>
 <use xlink:href="#E1-MJMAIN-D7" x="0" y="-3441"></use>
</g>
<g transform="translate(31391,0)">
<g transform="translate(0,3341)">
 <use xlink:href="#E1-MJMAINB-4F" x="0" y="0"></use>
 <use xlink:href="#E1-MJMAINB-75" x="864" y="0"></use>
 <use xlink:href="#E1-MJMAINB-74" x="1504" y="0"></use>
 <use xlink:href="#E1-MJMAINB-44" x="2201" y="0"></use>
 <use xlink:href="#E1-MJMAINB-65" x="3084" y="0"></use>
 <use xlink:href="#E1-MJMAINB-70" x="3611" y="0"></use>
 <use xlink:href="#E1-MJMAINB-74" x="4251" y="0"></use>
 <use xlink:href="#E1-MJMAINB-68" x="4698" y="0"></use>
</g>
<g transform="translate(2168,-1181)">
<g fill="green" stroke="green">
<g fill="green" stroke="green">
<g fill="green" stroke="green">
 <use xlink:href="#E1-MJMAIN-39"></use>
 <use xlink:href="#E1-MJMAIN-36" x="500" y="0"></use>
</g>
</g>
</g>
</g>
<g transform="translate(2168,-3441)">
<g fill="green" stroke="green">
<g fill="green" stroke="green">
<g fill="green" stroke="green">
 <use xlink:href="#E1-MJMAIN-39"></use>
 <use xlink:href="#E1-MJMAIN-36" x="500" y="0"></use>
</g>
</g>
</g>
</g>
</g>
</g>
</g>
</svg>